<svg id="Layer_1" data-name="Layer 1" xmlns="http://www.w3.org/2000/svg" viewBox="0 0 122.88 109.51"><title>flats-residential-apartment</title><path d="M33.15,106.13h-3v3.16h91.32a1.44,1.44,0,0,0,1.45-1.44v-75a2.11,2.11,0,0,0-.62-1.49h0a2.14,2.14,0,0,0-1.5-.63H89.4V2.54A2.52,2.52,0,0,0,88.76.86L88.65.74A2.52,2.52,0,0,0,86.85,0H32.52a2.54,2.54,0,0,0-1.8.74h0A2.51,2.51,0,0,0,30,2.31V43.73l3.16,4.68V3.17H86.23v103h3.16V33.78h30.46v72.35h-9.34V91a1.08,1.08,0,0,0-1.08-1.09H97.18A1.09,1.09,0,0,0,96.09,91v15.15h-23V84.71a1.45,1.45,0,0,0-1.45-1.45H47.72a1.44,1.44,0,0,0-1.44,1.45V87l.42.52a3.33,3.33,0,0,1,.24.32A6.63,6.63,0,0,1,48.11,91a7.42,7.42,0,0,1-.34,3.26v0h0a6.88,6.88,0,0,1-1.49,2.5v9.39H30.11V98.69h3v7.44ZM2.53,93.89C0,94.14-.55,92,.54,90.23l9.78-12.09-.28-.3H4.8c-1.89.3-2.6-1.87-1.44-3.39l10.53-13H10.81c-1.93,0-2.4-1.82-1.17-3.58l9.61-14.58c.65-.82,1.35-2,2.49-2,1,0,1.58,1,2.16,1.71L34.1,58.09a2.09,2.09,0,0,1-1.77,3.44H29.58L40,74.45a2.2,2.2,0,0,1-.83,3.69H33.13l9.11,11.28,1,1.24A2.07,2.07,0,0,1,42,93.89H25.54v15.62H17.83V93.89Zm27.58,4.78Zm78.23,7.46H98.26V92.06h10.08v14.07ZM106,40h7.84c.06,0,.12.09.12.2V45.3c0,.09-.06.19-.12.19H106c-.06,0-.12-.09-.12-.19V40.22c0-.11.06-.2.12-.2Zm0,35.23h7.84c.06,0,.12.09.12.18v5.08c0,.1-.06.19-.12.19H106c-.06,0-.12-.08-.12-.19V75.43c0-.09.06-.18.12-.18Zm-13.21,0h7.83c.07,0,.12.09.12.18v5.08c0,.1,0,.19-.12.19H92.78c-.07,0-.12-.08-.12-.19V75.43c0-.09,0-.18.12-.18ZM106,63.51h7.84c.06,0,.12.08.12.19v5.08c0,.1-.06.19-.12.19H106c-.06,0-.12-.08-.12-.19V63.7c0-.12.06-.19.12-.19Zm0-11.74h7.84c.06,0,.12.08.12.19V57c0,.09-.06.19-.12.19H106c-.06,0-.12-.09-.12-.19V52c0-.11.06-.19.12-.19ZM92.78,40h7.83c.07,0,.12.09.12.2V45.3c0,.09,0,.19-.12.19H92.78c-.07,0-.12-.09-.12-.19V40.22c0-.11,0-.2.12-.2Zm0,23.49h7.83c.07,0,.12.08.12.19v5.08c0,.1,0,.19-.12.19H92.78c-.07,0-.12-.08-.12-.19V63.7c0-.12,0-.19.12-.19Zm0-11.74h7.83c.07,0,.12.08.12.19V57c0,.09,0,.19-.12.19H92.78c-.07,0-.12-.09-.12-.19V52c0-.11,0-.19.12-.19ZM70.2,106.13h-21v-20h21v20Zm-29.42-95H49.3a.24.24,0,0,1,.24.24V19.9a.24.24,0,0,1-.24.24H40.78a.25.25,0,0,1-.25-.24V11.38a.25.25,0,0,1,.25-.24Zm29.29,0H78.6a.24.24,0,0,1,.24.24V19.9a.24.24,0,0,1-.24.24H70.07a.24.24,0,0,1-.24-.24V11.38a.24.24,0,0,1,.24-.24Zm-14.65,0H64a.24.24,0,0,1,.24.24V19.9a.24.24,0,0,1-.24.24H55.42a.24.24,0,0,1-.24-.24V11.38a.24.24,0,0,1,.24-.24ZM40.78,29.6H49.3a.24.24,0,0,1,.24.24v8.53a.24.24,0,0,1-.24.24H40.78a.25.25,0,0,1-.25-.24V29.84a.25.25,0,0,1,.25-.24Zm29.29,0H78.6a.24.24,0,0,1,.24.24v8.53a.24.24,0,0,1-.24.24H70.07a.24.24,0,0,1-.24-.24V29.84a.24.24,0,0,1,.24-.24Zm-14.65,0H64a.24.24,0,0,1,.24.24v8.53a.24.24,0,0,1-.24.24H55.42a.24.24,0,0,1-.24-.24V29.84a.24.24,0,0,1,.24-.24ZM40.78,66.53H49.3a.24.24,0,0,1,.24.24v8.52a.25.25,0,0,1-.24.25H45.24a6.42,6.42,0,0,0-.12-.88,7.18,7.18,0,0,0-1.7-3.42l-2.89-3.57v-.9a.25.25,0,0,1,.25-.24Zm29.29,0H78.6a.24.24,0,0,1,.24.24v8.52a.25.25,0,0,1-.24.25H70.07a.25.25,0,0,1-.24-.25V66.77a.24.24,0,0,1,.24-.24Zm-14.65,0H64a.24.24,0,0,1,.24.24v8.52a.25.25,0,0,1-.24.25H55.42a.25.25,0,0,1-.24-.25V66.77a.24.24,0,0,1,.24-.24ZM40.78,48.07H49.3a.24.24,0,0,1,.24.24v8.52a.24.24,0,0,1-.24.24H40.78a.25.25,0,0,1-.25-.24V48.31a.25.25,0,0,1,.25-.24Zm29.29,0H78.6a.24.24,0,0,1,.24.24v8.52a.24.24,0,0,1-.24.24H70.07a.24.24,0,0,1-.24-.24V48.31a.24.24,0,0,1,.24-.24Zm-14.65,0H64a.24.24,0,0,1,.24.24v8.52a.24.24,0,0,1-.24.24H55.42a.24.24,0,0,1-.24-.24V48.31a.24.24,0,0,1,.24-.24Z"/></svg>