<svg width="50" height="36" viewBox="0 0 50 36" fill="none" xmlns="http://www.w3.org/2000/svg">
<path d="M8 9C8 8.44772 8.44772 8 9 8H40.75C41.3023 8 41.75 8.44772 41.75 9V9.5C41.75 10.0523 41.3023 10.5 40.75 10.5H9C8.44772 10.5 8 10.0523 8 9.5V9ZM19.25 17.75C19.25 17.1977 19.6977 16.75 20.25 16.75H40.75C41.3023 16.75 41.75 17.1977 41.75 17.75V18.25C41.75 18.8023 41.3023 19.25 40.75 19.25H20.25C19.6977 19.25 19.25 18.8023 19.25 18.25V17.75ZM8 26.5C8 25.9477 8.44772 25.5 9 25.5H40.75C41.3023 25.5 41.75 25.9477 41.75 26.5V27C41.75 27.5523 41.3023 28 40.75 28H9C8.44772 28 8 27.5523 8 27V26.5Z" fill="white"/>
</svg>
