<svg width="14" height="14" viewBox="0 0 14 14" fill="none" xmlns="http://www.w3.org/2000/svg">
<path d="M0.333008 6.83332H13.6663V12.8333C13.6663 13.0101 13.5961 13.1797 13.4711 13.3047C13.3461 13.4298 13.1765 13.5 12.9997 13.5H0.999674C0.822863 13.5 0.653294 13.4298 0.52827 13.3047C0.403246 13.1797 0.333008 13.0101 0.333008 12.8333V6.83332ZM10.333 1.49999H12.9997C13.1765 1.49999 13.3461 1.57023 13.4711 1.69525C13.5961 1.82028 13.6663 1.98985 13.6663 2.16666V5.49999H0.333008V2.16666C0.333008 1.98985 0.403246 1.82028 0.52827 1.69525C0.653294 1.57023 0.822863 1.49999 0.999674 1.49999H3.66634V0.166656H4.99967V1.49999H8.99967V0.166656H10.333V1.49999Z" fill="white"/>
</svg>
