<svg width="16" height="17" viewBox="0 0 16 17" fill="none" xmlns="http://www.w3.org/2000/svg">
<path d="M1.33301 7.83332H14.6663V13.8333C14.6663 14.0101 14.5961 14.1797 14.4711 14.3047C14.3461 14.4298 14.1765 14.5 13.9997 14.5H1.99967C1.82286 14.5 1.65329 14.4298 1.52827 14.3047C1.40325 14.1797 1.33301 14.0101 1.33301 13.8333V7.83332ZM11.333 2.49999H13.9997C14.1765 2.49999 14.3461 2.57023 14.4711 2.69525C14.5961 2.82028 14.6663 2.98985 14.6663 3.16666V6.49999H1.33301V3.16666C1.33301 2.98985 1.40325 2.82028 1.52827 2.69525C1.65329 2.57023 1.82286 2.49999 1.99967 2.49999H4.66634V1.16666H5.99967V2.49999H9.99967V1.16666H11.333V2.49999Z" fill="white"/>
</svg>
