<svg width="16" height="17" viewBox="0 0 16 17" fill="none" xmlns="http://www.w3.org/2000/svg">
<rect width="16" height="17" fill="none"/>
<rect width="1440" height="1024" transform="translate(-1352 -394)" />
<rect x="-1312" y="-19" width="1360" height="54" fill="none"/>
<g clip-path="url(#clip0_0_1)">
<path d="M11.75 3.74992H15.025C15.2874 3.74992 15.5 3.96257 15.5 4.22488V4.22488C15.5 4.48719 15.2874 4.69984 15.025 4.69984H14V15.6249C14 15.8349 13.921 16.0362 13.7803 16.1847C13.6397 16.3332 13.4489 16.4166 13.25 16.4166H2.75C2.55109 16.4166 2.36032 16.3332 2.21967 16.1847C2.07902 16.0362 2 15.8349 2 15.6249V4.69984H0.974961C0.712647 4.69984 0.5 4.48719 0.5 4.22488V4.22488C0.5 3.96257 0.712647 3.74992 0.974961 3.74992H4.25V1.37492C4.25 1.16496 4.32902 0.963592 4.46967 0.815126C4.61032 0.666659 4.80109 0.583252 5 0.583252H11C11.1989 0.583252 11.3897 0.666659 11.5303 0.815126C11.671 0.963592 11.75 1.16496 11.75 1.37492V3.74992ZM13 4.69984H3V15.3311H13V4.69984ZM5.30015 1.54476V3.74984H10.7001V1.54476H5.30015Z" fill="#222222"/>
</g>
<defs>
<clipPath id="clip0_0_1">
<rect width="18" height="19" fill="none" transform="translate(-1 -1)"/>
</clipPath>
</defs>
</svg>
