<svg width="45" height="45" viewBox="0 0 45 45" fill="none" xmlns="http://www.w3.org/2000/svg">
<path d="M41.4004 33.2998C41.4004 34.791 40.1916 35.9998 38.7004 35.9998H6.30039C4.80922 35.9998 3.60039 34.791 3.60039 33.2998V17.0998C3.60039 15.6086 4.80922 14.3998 6.30039 14.3998H9.46364C11.6119 14.3998 13.6722 13.5464 15.1912 12.0274L17.428 9.79061C17.9343 9.28427 18.6211 8.9998 19.3371 8.9998H25.6636C26.3797 8.9998 27.0665 9.28427 27.5728 9.79062L29.8096 12.0274C31.3286 13.5464 33.3889 14.3998 35.5371 14.3998H38.7004C40.1916 14.3998 41.4004 15.6086 41.4004 17.0998V33.2998ZM6.30039 11.6998C3.31805 11.6998 0.900391 14.1175 0.900391 17.0998V33.2998C0.900391 36.2821 3.31805 38.6998 6.30039 38.6998H38.7004C41.6827 38.6998 44.1004 36.2821 44.1004 33.2998V17.0998C44.1004 14.1175 41.6827 11.6998 38.7004 11.6998H35.5371C34.105 11.6998 32.7315 11.1309 31.7188 10.1182L29.482 7.88143C28.4693 6.86873 27.0958 6.2998 25.6636 6.2998H19.3371C17.905 6.2998 16.5315 6.86873 15.5188 7.88143L13.282 10.1182C12.2693 11.1309 10.8958 11.6998 9.46364 11.6998H6.30039Z" fill="#C4C4C4"/>
<path d="M22.5004 30.5998C18.7725 30.5998 15.7504 27.5777 15.7504 23.8498C15.7504 20.1219 18.7725 17.0998 22.5004 17.0998C26.2283 17.0998 29.2504 20.1219 29.2504 23.8498C29.2504 27.5777 26.2283 30.5998 22.5004 30.5998ZM22.5004 33.2998C27.7195 33.2998 31.9504 29.0689 31.9504 23.8498C31.9504 18.6307 27.7195 14.3998 22.5004 14.3998C17.2813 14.3998 13.0504 18.6307 13.0504 23.8498C13.0504 29.0689 17.2813 33.2998 22.5004 33.2998Z" fill="#C4C4C4"/>
<path d="M9.00039 18.4498C9.00039 19.1954 8.39598 19.7998 7.65039 19.7998C6.90481 19.7998 6.30039 19.1954 6.30039 18.4498C6.30039 17.7042 6.90481 17.0998 7.65039 17.0998C8.39598 17.0998 9.00039 17.7042 9.00039 18.4498Z" fill="#C4C4C4"/>
</svg>
