<svg width="30" height="30" viewBox="0 0 30 30" fill="none" xmlns="http://www.w3.org/2000/svg">
<g clip-path="url(#clip0_2864_4090)">
<path d="M15 3C18.2604 3 18.6672 3.012 19.9464 3.072C21.2244 3.132 22.0944 3.3324 22.86 3.63C23.652 3.9348 24.3192 4.3476 24.9864 5.0136C25.5966 5.61348 26.0687 6.33911 26.37 7.14C26.6664 7.9044 26.868 8.7756 26.928 10.0536C26.9844 11.3328 27 11.7396 27 15C27 18.2604 26.988 18.6672 26.928 19.9464C26.868 21.2244 26.6664 22.0944 26.37 22.86C26.0696 23.6613 25.5973 24.3871 24.9864 24.9864C24.3864 25.5964 23.6608 26.0685 22.86 26.37C22.0956 26.6664 21.2244 26.868 19.9464 26.928C18.6672 26.9844 18.2604 27 15 27C11.7396 27 11.3328 26.988 10.0536 26.928C8.7756 26.868 7.9056 26.6664 7.14 26.37C6.33879 26.0694 5.61303 25.5971 5.0136 24.9864C4.40329 24.3866 3.93112 23.661 3.63 22.86C3.3324 22.0956 3.132 21.2244 3.072 19.9464C3.0156 18.6672 3 18.2604 3 15C3 11.7396 3.012 11.3328 3.072 10.0536C3.132 8.7744 3.3324 7.9056 3.63 7.14C3.93028 6.33862 4.40256 5.61279 5.0136 5.0136C5.61321 4.40308 6.33891 3.93088 7.14 3.63C7.9056 3.3324 8.7744 3.132 10.0536 3.072C11.3328 3.0156 11.7396 3 15 3ZM15 9C13.4087 9 11.8826 9.63214 10.7574 10.7574C9.63214 11.8826 9 13.4087 9 15C9 16.5913 9.63214 18.1174 10.7574 19.2426C11.8826 20.3679 13.4087 21 15 21C16.5913 21 18.1174 20.3679 19.2426 19.2426C20.3679 18.1174 21 16.5913 21 15C21 13.4087 20.3679 11.8826 19.2426 10.7574C18.1174 9.63214 16.5913 9 15 9ZM22.8 8.7C22.8 8.30218 22.642 7.92064 22.3607 7.63934C22.0794 7.35804 21.6978 7.2 21.3 7.2C20.9022 7.2 20.5206 7.35804 20.2393 7.63934C19.958 7.92064 19.8 8.30218 19.8 8.7C19.8 9.09783 19.958 9.47936 20.2393 9.76066C20.5206 10.042 20.9022 10.2 21.3 10.2C21.6978 10.2 22.0794 10.042 22.3607 9.76066C22.642 9.47936 22.8 9.09783 22.8 8.7ZM15 11.4C15.9548 11.4 16.8705 11.7793 17.5456 12.4544C18.2207 13.1295 18.6 14.0452 18.6 15C18.6 15.9548 18.2207 16.8705 17.5456 17.5456C16.8705 18.2207 15.9548 18.6 15 18.6C14.0452 18.6 13.1295 18.2207 12.4544 17.5456C11.7793 16.8705 11.4 15.9548 11.4 15C11.4 14.0452 11.7793 13.1295 12.4544 12.4544C13.1295 11.7793 14.0452 11.4 15 11.4Z" fill="#828282"/>
</g>
<defs>
<clipPath id="clip0_2864_4090">
<rect width="28.8" height="28.8" fill="white" transform="translate(0.600098 0.600098)"/>
</clipPath>
</defs>
</svg>
