<svg viewBox="0 0 72 54" fill="none" xmlns="http://www.w3.org/2000/svg">
<path d="M15.1019 25.5165C15.4449 25.5165 15.7846 25.4506 16.1016 25.3223C16.4185 25.1941 16.7065 25.0062 16.949 24.7692C17.1916 24.5323 17.3841 24.2511 17.5153 23.9415C17.6466 23.6319 17.7142 23.3001 17.7142 22.965C17.7142 18.2278 19.6407 13.6846 23.07 10.3348C26.4992 6.9851 31.1504 5.10324 36 5.10324C40.8497 5.10324 45.5008 6.9851 48.93 10.3348C52.3594 13.6846 54.2858 18.2278 54.2858 22.965C54.2926 23.6373 54.5708 24.2798 55.0601 24.7528C55.5491 25.2259 56.2096 25.4913 56.8981 25.4913C57.5864 25.4913 58.2469 25.2259 58.7359 24.7528C59.2252 24.2798 59.5034 23.6373 59.5102 22.965C59.5102 19.9492 58.902 16.9629 57.7207 14.1767C56.539 11.3904 54.8074 8.85878 52.6243 6.72628C50.441 4.59379 47.8492 2.9022 44.997 1.74811C42.1445 0.594005 39.0875 0 36 0C32.9125 0 29.8555 0.594005 27.003 1.74811C24.1506 2.9022 21.5589 4.59379 19.3758 6.72628C17.1926 8.85878 15.4609 11.3904 14.2794 14.1767C13.0979 16.9629 12.4898 19.9492 12.4898 22.965C12.4898 23.6417 12.765 24.2907 13.2548 24.7692C13.7447 25.2477 14.4091 25.5165 15.1019 25.5165Z" fill="white"/>
<path d="M69.4173 30.6197H46.4523C48.1526 28.4146 49.0709 25.7271 49.068 22.965C49.068 19.5812 47.6937 16.3361 45.2477 13.9434C42.8015 11.5508 39.4838 10.2066 36.0245 10.2066C32.5654 10.2066 29.2478 11.5508 26.8015 13.9434C24.3554 16.3361 22.9812 19.5812 22.9812 22.965C22.9812 23.6417 23.256 24.2908 23.7453 24.7693C24.2345 25.2479 24.8981 25.5167 25.59 25.5167C26.2819 25.5167 26.9455 25.2479 27.4346 24.7693C27.924 24.2908 28.1987 23.6417 28.1987 22.965C28.1987 21.4509 28.6576 19.9709 29.5176 18.712C30.3775 17.4531 31.5997 16.4719 33.0298 15.8925C34.4598 15.313 36.0333 15.1614 37.5514 15.4568C39.0695 15.7521 40.4641 16.4812 41.5584 17.5517C42.653 18.6223 43.3984 19.9863 43.7005 21.4712C44.0024 22.9561 43.8474 24.4953 43.2552 25.894C42.6627 27.2928 41.6598 28.4885 40.3727 29.3297C39.0856 30.1708 37.5725 30.6197 36.0248 30.6197H2.63483C2.29007 30.6164 1.94804 30.6798 1.62852 30.8067C1.309 30.9333 1.01834 31.1208 0.773328 31.3579C0.528318 31.5954 0.333815 31.8776 0.201079 32.1889C0.0683422 32.5002 0 32.8342 0 33.1714C0 33.5085 0.0683422 33.8424 0.201079 34.1537C0.333815 34.465 0.528318 34.7473 0.773328 34.9847C1.01834 35.2219 1.309 35.4093 1.62852 35.536C1.94804 35.6628 2.29007 35.7262 2.63483 35.7229H69.4173C70.1046 35.7163 70.7614 35.4445 71.245 34.9666C71.7286 34.489 72 33.8437 72 33.1714C72 32.4989 71.7286 31.8537 71.245 31.376C70.7614 30.8981 70.1046 30.6263 69.4173 30.6197Z" fill="white"/>
<path d="M17.3872 51.8466H12.6988L11.7745 54H9.97954L14.1991 44.6954H15.9137L20.1466 54H18.3248L17.3872 51.8466ZM16.8112 50.4908L15.043 46.4234L13.2882 50.4908H16.8112Z" fill="white"/>
<path d="M21.3123 46.9019H22.9867V54H21.3123V46.9019ZM22.1562 45.7322C21.8526 45.7322 21.5981 45.6391 21.3927 45.453C21.1873 45.2581 21.0846 45.0188 21.0846 44.7353C21.0846 44.4517 21.1873 44.2169 21.3927 44.0308C21.5981 43.8358 21.8526 43.7383 22.1562 43.7383C22.4598 43.7383 22.7144 43.8314 22.9198 44.0175C23.1252 44.1947 23.2278 44.4207 23.2278 44.6954C23.2278 44.9878 23.1252 45.2359 22.9198 45.4398C22.7233 45.6347 22.4688 45.7322 22.1562 45.7322Z" fill="white"/>
<path d="M26.9124 47.9387C27.3946 47.1943 28.243 46.8222 29.4575 46.8222V48.4039C29.3146 48.3774 29.1852 48.3641 29.0691 48.3641C28.4172 48.3641 27.9081 48.5546 27.542 48.9356C27.1758 49.3078 26.9928 49.8484 26.9928 50.5573V54H25.3184V46.9019H26.9124V47.9387Z" fill="white"/>
<path d="M37.7513 49.1616C38.2693 49.33 38.6801 49.6135 38.9837 50.0123C39.2873 50.4022 39.4392 50.8896 39.4392 51.4745C39.4392 52.2809 39.1266 52.9056 38.5015 53.3487C37.8764 53.7829 36.9655 54 35.7688 54H31.1072V44.6954H35.5009C36.6083 44.6954 37.4611 44.9125 38.0594 45.3467C38.6578 45.7721 38.9569 46.3614 38.9569 47.1146C38.9569 47.5754 38.8498 47.983 38.6354 48.3375C38.4211 48.6919 38.1264 48.9666 37.7513 49.1616ZM32.8486 46.0512V48.6166H35.3134C35.9206 48.6166 36.385 48.5103 36.7065 48.2976C37.0369 48.0761 37.2021 47.757 37.2021 47.3406C37.2021 46.9152 37.0369 46.5962 36.7065 46.3835C36.385 46.162 35.9206 46.0512 35.3134 46.0512H32.8486ZM35.6617 52.6442C37.0101 52.6442 37.6844 52.1967 37.6844 51.3017C37.6844 50.4067 37.0101 49.9591 35.6617 49.9591H32.8486V52.6442H35.6617Z" fill="white"/>
<path d="M49.7635 44.6954V54H48.3302L43.1596 47.6994V54H41.4316V44.6954H42.8649L48.0355 50.9959V44.6954H49.7635Z" fill="white"/>
<path d="M59.0541 49.1616C59.5721 49.33 59.9829 49.6135 60.2865 50.0123C60.5901 50.4022 60.7419 50.8896 60.7419 51.4745C60.7419 52.2809 60.4294 52.9056 59.8043 53.3487C59.1791 53.7829 58.2683 54 57.0716 54H52.41V44.6954H56.8037C57.9111 44.6954 58.7639 44.9125 59.3622 45.3467C59.9605 45.7721 60.2597 46.3614 60.2597 47.1146C60.2597 47.5754 60.1525 47.983 59.9382 48.3375C59.7239 48.6919 59.4292 48.9666 59.0541 49.1616ZM54.1514 46.0512V48.6166H56.6162C57.2234 48.6166 57.6878 48.5103 58.0093 48.2976C58.3397 48.0761 58.5049 47.757 58.5049 47.3406C58.5049 46.9152 58.3397 46.5962 58.0093 46.3835C57.6878 46.162 57.2234 46.0512 56.6162 46.0512H54.1514ZM56.9645 52.6442C58.3129 52.6442 58.9872 52.1967 58.9872 51.3017C58.9872 50.4067 58.3129 49.9591 56.9645 49.9591H54.1514V52.6442H56.9645Z" fill="white"/>
</svg>
