<svg width="60" height="45" viewBox="0 0 60 45" fill="none" xmlns="http://www.w3.org/2000/svg">
<path d="M12.5849 21.2637C12.8708 21.2637 13.1538 21.2088 13.418 21.102C13.6821 20.9951 13.922 20.8385 14.1242 20.641C14.3264 20.4436 14.4867 20.2092 14.5961 19.9512C14.7055 19.6932 14.7618 19.4167 14.7618 19.1375C14.7618 15.1898 16.3673 11.4038 19.225 8.61236C22.0826 5.82092 25.9586 4.2527 30 4.2527C34.0414 4.2527 37.9174 5.82092 40.775 8.61236C43.6328 11.4038 45.2382 15.1898 45.2382 19.1375C45.2438 19.6978 45.4757 20.2332 45.8834 20.6274C46.2909 21.0216 46.8414 21.2427 47.4151 21.2427C47.9886 21.2427 48.5391 21.0216 48.9466 20.6274C49.3543 20.2332 49.5862 19.6978 49.5918 19.1375C49.5918 16.6243 49.085 14.1358 48.1006 11.8139C47.1159 9.49202 45.6728 7.38231 43.8536 5.60523C42.0341 3.82815 39.8744 2.4185 37.4975 1.45676C35.1204 0.495005 32.5729 0 30 0C27.4271 0 24.8796 0.495005 22.5025 1.45676C20.1255 2.4185 17.9657 3.82815 16.1465 5.60523C14.3272 7.38231 12.8841 9.49202 11.8995 11.8139C10.9149 14.1358 10.4082 16.6243 10.4082 19.1375C10.4082 19.7014 10.6375 20.2422 11.0457 20.641C11.4539 21.0397 12.0076 21.2637 12.5849 21.2637Z" fill="#1C2E20"/>
<path d="M57.8477 25.5164H38.7102C40.1272 23.6789 40.8924 21.4393 40.89 19.1375C40.89 16.3177 39.7448 13.6134 37.7065 11.6195C35.6679 9.62564 32.9032 8.5055 30.0204 8.5055C27.1378 8.5055 24.3731 9.62564 22.3346 11.6195C20.2962 13.6134 19.151 16.3177 19.151 19.1375C19.151 19.7014 19.38 20.2423 19.7877 20.6411C20.1954 21.0399 20.7484 21.2639 21.325 21.2639C21.9016 21.2639 22.4546 21.0399 22.8622 20.6411C23.27 20.2423 23.4989 19.7014 23.4989 19.1375C23.4989 17.8758 23.8813 16.6424 24.598 15.5933C25.3146 14.5443 26.3331 13.7266 27.5248 13.2437C28.7165 12.7609 30.0278 12.6345 31.2928 12.8806C32.5579 13.1268 33.7201 13.7343 34.632 14.6264C35.5442 15.5186 36.1653 16.6552 36.4171 17.8927C36.6686 19.1301 36.5395 20.4127 36.046 21.5783C35.5522 22.744 34.7165 23.7404 33.6439 24.4414C32.5714 25.1424 31.3104 25.5164 30.0206 25.5164H2.19569C1.90839 25.5137 1.62336 25.5665 1.3571 25.6722C1.09084 25.7777 0.848618 25.934 0.64444 26.1316C0.440265 26.3295 0.278179 26.5647 0.167566 26.8241C0.0569518 27.0835 0 27.3618 0 27.6429C0 27.9237 0.0569518 28.202 0.167566 28.4614C0.278179 28.7208 0.440265 28.9561 0.64444 29.1539C0.848618 29.3515 1.09084 29.5078 1.3571 29.6133C1.62336 29.719 1.90839 29.7719 2.19569 29.7691H57.8477C58.4205 29.7636 58.9678 29.5371 59.3708 29.1388C59.7739 28.7408 60 28.2031 60 27.6429C60 27.0824 59.7739 26.5447 59.3708 26.1467C58.9678 25.7484 58.4205 25.5219 57.8477 25.5164Z" fill="#1C2E20"/>
<path d="M14.4893 43.2055H10.5823L9.81209 45H8.31628L11.8326 37.2462H13.2614L16.7888 45H15.2707L14.4893 43.2055ZM14.0093 42.0757L12.5358 38.6862L11.0735 42.0757H14.0093Z" fill="#1C2E20"/>
<path d="M17.7603 39.0849H19.1556V45H17.7603V39.0849ZM18.4635 38.1102C18.2105 38.1102 17.9984 38.0326 17.8272 37.8775C17.6561 37.7151 17.5705 37.5157 17.5705 37.2794C17.5705 37.0431 17.6561 36.8474 17.8272 36.6923C17.9984 36.5298 18.2105 36.4486 18.4635 36.4486C18.7165 36.4486 18.9286 36.5262 19.0998 36.6812C19.271 36.8289 19.3565 37.0172 19.3565 37.2462C19.3565 37.4898 19.271 37.6966 19.0998 37.8665C18.9361 38.0289 18.724 38.1102 18.4635 38.1102Z" fill="#1C2E20"/>
<path d="M22.427 39.9489C22.8289 39.3286 23.5358 39.0185 24.5479 39.0185V40.3366C24.4289 40.3145 24.321 40.3034 24.2242 40.3034C23.681 40.3034 23.2568 40.4622 22.9517 40.7797C22.6465 41.0898 22.494 41.5403 22.494 42.1311V45H21.0986V39.0849H22.427V39.9489Z" fill="#1C2E20"/>
<path d="M31.4594 40.968C31.8911 41.1083 32.2334 41.3446 32.4864 41.6769C32.7394 42.0018 32.866 42.408 32.866 42.8954C32.866 43.5674 32.6055 44.088 32.0846 44.4572C31.5636 44.8191 30.8046 45 29.8074 45H25.9227V37.2462H29.5841C30.5069 37.2462 31.2176 37.4271 31.7162 37.7889C32.2148 38.1434 32.4641 38.6345 32.4641 39.2622C32.4641 39.6462 32.3748 39.9858 32.1962 40.2812C32.0176 40.5766 31.772 40.8055 31.4594 40.968ZM27.3739 38.376V40.5138H29.4278C29.9339 40.5138 30.3208 40.4252 30.5887 40.248C30.8641 40.0634 31.0018 39.7975 31.0018 39.4505C31.0018 39.096 30.8641 38.8302 30.5887 38.6529C30.3208 38.4683 29.9339 38.376 29.4278 38.376H27.3739ZM29.7181 43.8702C30.8418 43.8702 31.4036 43.4972 31.4036 42.7514C31.4036 42.0055 30.8418 41.6326 29.7181 41.6326H27.3739V43.8702H29.7181Z" fill="#1C2E20"/>
<path d="M41.4696 37.2462V45H40.2752L35.9663 39.7495V45H34.5263V37.2462H35.7208L40.0296 42.4966V37.2462H41.4696Z" fill="#1C2E20"/>
<path d="M49.2118 40.968C49.6434 41.1083 49.9857 41.3446 50.2387 41.6769C50.4918 42.0018 50.6183 42.408 50.6183 42.8954C50.6183 43.5674 50.3578 44.088 49.8369 44.4572C49.316 44.8191 48.5569 45 47.5597 45H43.675V37.2462H47.3364C48.2592 37.2462 48.9699 37.4271 49.4685 37.7889C49.9671 38.1434 50.2164 38.6345 50.2164 39.2622C50.2164 39.6462 50.1271 39.9858 49.9485 40.2812C49.7699 40.5766 49.5243 40.8055 49.2118 40.968ZM45.1262 38.376V40.5138H47.1801C47.6862 40.5138 48.0732 40.4252 48.3411 40.248C48.6164 40.0634 48.7541 39.7975 48.7541 39.4505C48.7541 39.096 48.6164 38.8302 48.3411 38.6529C48.0732 38.4683 47.6862 38.376 47.1801 38.376H45.1262ZM47.4704 43.8702C48.5941 43.8702 49.156 43.4972 49.156 42.7514C49.156 42.0055 48.5941 41.6326 47.4704 41.6326H45.1262V43.8702H47.4704Z" fill="#1C2E20"/>
</svg>
