<svg width="24px" height="24px" viewBox="0 0 24 24" id="_24x24_On_Light_Repeat" data-name="24x24/On Light/Repeat" xmlns="http://www.w3.org/2000/svg">
  <rect id="view-box" width="24" height="24" fill="none"/>
  <path id="Shape" d="M10.22,17.28a.75.75,0,0,1,0-1.06l1.72-1.72H5.75A5.757,5.757,0,0,1,0,8.75a.75.75,0,0,1,1.5,0A4.254,4.254,0,0,0,5.75,13h6.188L10.22,11.281a.75.75,0,0,1,1.061-1.061l3,3a.75.75,0,0,1,0,1.06l-3,3a.75.75,0,0,1-1.061,0ZM16,8.75A4.255,4.255,0,0,0,11.75,4.5H5.56L7.28,6.22A.75.75,0,0,1,6.22,7.28l-3-3a.751.751,0,0,1,0-1.061l3-3A.75.75,0,0,1,7.28,1.281L5.561,3H11.75A5.756,5.756,0,0,1,17.5,8.75a.75.75,0,0,1-1.5,0Z" transform="translate(3.25 3.25)" fill="#141124"/>
</svg>
