<svg width="86" height="14" viewBox="0 0 86 14" fill="none" xmlns="http://www.w3.org/2000/svg">
<path d="M7.00036 10.6517L2.88611 12.9547L3.80486 8.33002L0.342773 5.12869L5.02519 4.57335L7.00036 0.291687L8.97552 4.57335L13.6579 5.12869L10.1959 8.33002L11.1146 12.9547L7.00036 10.6517Z" fill="#F7D212"/>
<path d="M43.0004 10.6517L38.8861 12.9547L39.8049 8.33002L36.3428 5.12869L41.0252 4.57335L43.0004 0.291687L44.9755 4.57335L49.6579 5.12869L46.1959 8.33002L47.1146 12.9547L43.0004 10.6517Z" fill="#F7D212"/>
<path d="M25.0004 10.6517L20.8861 12.9547L21.8049 8.33002L18.3428 5.12869L23.0252 4.57335L25.0004 0.291687L26.9755 4.57335L31.6579 5.12869L28.1959 8.33002L29.1146 12.9547L25.0004 10.6517Z" fill="#F7D212"/>
<path d="M61.0004 10.6517L56.8861 12.9547L57.8049 8.33002L54.3428 5.12869L59.0252 4.57335L61.0004 0.291687L62.9755 4.57335L67.6579 5.12869L64.1959 8.33002L65.1146 12.9547L61.0004 10.6517Z" fill="#F7D212"/>
<path d="M79.0004 10.6517L74.8861 12.9547L75.8049 8.33002L72.3428 5.12869L77.0252 4.57335L79.0004 0.291687L80.9755 4.57335L85.6579 5.12869L82.1959 8.33002L83.1146 12.9547L79.0004 10.6517Z" fill="#F7D212"/>
</svg>
