<svg width="30" height="30" viewBox="0 0 30 30" fill="none" xmlns="http://www.w3.org/2000/svg">
<g clip-path="url(#clip0_2864_4097)">
<path d="M3.00482 27L4.62722 21.0384C3.55818 19.2058 2.99653 17.1216 3.00002 15C3.00002 8.3724 8.37242 3 15 3C21.6276 3 27 8.3724 27 15C27 21.6276 21.6276 27 15 27C12.8793 27.0034 10.796 26.4422 8.96402 25.374L3.00482 27ZM10.6692 9.3696C10.5143 9.37922 10.3628 9.42004 10.224 9.4896C10.0938 9.56332 9.97501 9.65547 9.87122 9.7632C9.72722 9.8988 9.64562 10.0164 9.55802 10.1304C9.11451 10.7076 8.87595 11.4161 8.88002 12.144C8.88242 12.732 9.03602 13.3044 9.27602 13.8396C9.76682 14.922 10.5744 16.068 11.6412 17.13C11.898 17.3856 12.1488 17.6424 12.4188 17.8812C13.7429 19.047 15.3207 19.8876 17.0268 20.3364L17.7096 20.4408C17.9316 20.4528 18.1536 20.436 18.3768 20.4252C18.7263 20.4072 19.0676 20.3125 19.3764 20.148C19.5756 20.0424 19.6692 19.9896 19.836 19.884C19.836 19.884 19.8876 19.8504 19.986 19.776C20.148 19.656 20.2476 19.5708 20.382 19.4304C20.4816 19.3272 20.568 19.206 20.634 19.068C20.7276 18.8724 20.8212 18.4992 20.8596 18.1884C20.8884 17.9508 20.88 17.8212 20.8764 17.7408C20.8716 17.6124 20.7648 17.4792 20.6484 17.4228L19.95 17.1096C19.95 17.1096 18.906 16.6548 18.2688 16.3644C18.2016 16.3351 18.1296 16.3184 18.0564 16.3152C17.9743 16.3068 17.8914 16.316 17.8131 16.3423C17.7349 16.3686 17.6632 16.4113 17.6028 16.4676V16.4652C17.5968 16.4652 17.5164 16.5336 16.6488 17.5848C16.599 17.6517 16.5304 17.7023 16.4518 17.7301C16.3731 17.7579 16.288 17.7616 16.2072 17.7408C16.129 17.7199 16.0524 17.6934 15.978 17.6616C15.8292 17.5992 15.7776 17.5752 15.6756 17.5308L15.6696 17.5284C14.9831 17.2287 14.3475 16.8238 13.7856 16.3284C13.6344 16.1964 13.494 16.0524 13.35 15.9132C12.8779 15.4611 12.4665 14.9496 12.126 14.3916L12.0552 14.2776C12.0044 14.201 11.9632 14.1184 11.9328 14.0316C11.8872 13.8552 12.006 13.7136 12.006 13.7136C12.006 13.7136 12.2976 13.3944 12.4332 13.2216C12.5461 13.078 12.6515 12.9286 12.7488 12.774C12.8904 12.546 12.9348 12.312 12.8604 12.1308C12.5244 11.31 12.1764 10.4928 11.8188 9.6816C11.748 9.5208 11.538 9.4056 11.3472 9.3828C11.2824 9.3756 11.2176 9.3684 11.1528 9.3636C10.9917 9.35559 10.8302 9.3572 10.6692 9.3684V9.3696Z" fill="#828282"/>
</g>
<defs>
<clipPath id="clip0_2864_4097">
<rect width="28.8" height="28.8" fill="white" transform="translate(0.600098 0.600098)"/>
</clipPath>
</defs>
</svg>
