<svg width="20" height="20" viewBox="0 0 20 20" fill="none" xmlns="http://www.w3.org/2000/svg">
<path d="M15.5284 14.2322L19.4545 18.1573L18.1574 19.4544L14.2322 15.5283C12.7717 16.6991 10.9551 17.3359 9.08331 17.3333C4.52931 17.3333 0.833313 13.6373 0.833313 9.08325C0.833313 4.52925 4.52931 0.833252 9.08331 0.833252C13.6373 0.833252 17.3333 4.52925 17.3333 9.08325C17.336 10.9551 16.6992 12.7717 15.5284 14.2322ZM13.6896 13.552C14.8529 12.3556 15.5026 10.752 15.5 9.08325C15.5 5.53758 12.6281 2.66659 9.08331 2.66659C5.53765 2.66659 2.66665 5.53758 2.66665 9.08325C2.66665 12.628 5.53765 15.4999 9.08331 15.4999C10.752 15.5025 12.3557 14.8529 13.5521 13.6895L13.6896 13.552Z" fill="#7D7D7D"/>
</svg>
